HIERARCHY
ROOT hip
{
	OFFSET 0.000000 0.000000 0.000000
	CHANNELS 6 Xposition Yposition Zposition Xrotation Yrotation Zrotation
	JOINT mSpine1
	{
		OFFSET 0.0000 3.3100 -0.0000
		CHANNELS 3 Xrotation Yrotation Zrotation
		JOINT mSpine2
		{
			OFFSET 0.0000 -3.3100 0.0000
			CHANNELS 3 Xrotation Yrotation Zrotation
			JOINT abdomen
			{
				OFFSET 0.0000 3.3100 -0.0000
				CHANNELS 3 Xrotation Yrotation Zrotation
				JOINT mSpine3
				{
					OFFSET 0.0000 8.0660 -0.6050
					CHANNELS 3 Xrotation Yrotation Zrotation
					JOINT mSpine4
					{
						OFFSET 0.0000 -8.0660 0.6050
						CHANNELS 3 Xrotation Yrotation Zrotation
						JOINT chest
						{
							OFFSET 0.0000 8.0660 -0.6050
							CHANNELS 3 Xrotation Yrotation Zrotation
							JOINT neck
							{
								OFFSET 0.0000 9.8861 -0.3705
								CHANNELS 3 Xrotation Yrotation Zrotation
								JOINT head
								{
									OFFSET 0.0000 2.9776 -0.0000
									CHANNELS 3 Xrotation Yrotation Zrotation
									End Site
									{
										OFFSET 0.0000 3.1102 -0.0000
									}
								}
							}
							JOINT lCollar
							{
								OFFSET 2.8220 6.5116 -0.8157
								CHANNELS 3 Xrotation Yrotation Zrotation
								JOINT lShldr
								{
									OFFSET 3.1102 0.0000 0.0000
									CHANNELS 3 Xrotation Yrotation Zrotation
									JOINT lForeArm
									{
										OFFSET 10.9354 0.0000 0.0000
										CHANNELS 3 Xrotation Yrotation Zrotation
										JOINT lHand
										{
											OFFSET 9.5165 0.0000 0.0000
											CHANNELS 3 Xrotation Yrotation Zrotation
											JOINT mHandMiddle1Left
											{
												OFFSET 3.9764 0.5905 0.5118
												CHANNELS 3 Xrotation Yrotation Zrotation
												JOINT mHandMiddle2Left
												{
													OFFSET 1.5748 -0.2362 -0.0394
													CHANNELS 3 Xrotation Yrotation Zrotation
													JOINT mHandMiddle3Left
													{
														OFFSET 1.9291 -0.3150 -0.0394
														CHANNELS 3 Xrotation Yrotation Zrotation
														End Site
														{
															OFFSET 1.2992 -0.2362 -0.0787
														}
													}
												}
											}
											JOINT mHandIndex1Left
											{
												OFFSET 3.8189 0.5905 1.4961
												CHANNELS 3 Xrotation Yrotation Zrotation
												JOINT mHandIndex2Left
												{
													OFFSET 1.4173 -0.2362 0.6693
													CHANNELS 3 Xrotation Yrotation Zrotation
													JOINT mHandIndex3Left
													{
														OFFSET 1.2598 -0.2362 0.5512
														CHANNELS 3 Xrotation Yrotation Zrotation
														End Site
														{
															OFFSET 0.9843 -0.1575 0.4331
														}
													}
												}
											}
											JOINT mHandRing1Left
											{
												OFFSET 3.8976 0.3543 -0.3937
												CHANNELS 3 Xrotation Yrotation Zrotation
												JOINT mHandRing2Left
												{
													OFFSET 1.4961 -0.3150 -0.5118
													CHANNELS 3 Xrotation Yrotation Zrotation
													JOINT mHandRing3Left
													{
														OFFSET 1.5748 -0.3543 -0.5118
														CHANNELS 3 Xrotation Yrotation Zrotation
														End Site
														{
															OFFSET 1.1024 -0.2362 -0.3937
														}
													}
												}
											}
											JOINT mHandPinky1Left
											{
												OFFSET 3.7402 0.1181 -1.2205
												CHANNELS 3 Xrotation Yrotation Zrotation
												JOINT mHandPinky2Left
												{
													OFFSET 0.9842 -0.2362 -0.9449
													CHANNELS 3 Xrotation Yrotation Zrotation
													JOINT mHandPinky3Left
													{
														OFFSET 0.7087 -0.1575 -0.5906
														CHANNELS 3 Xrotation Yrotation Zrotation
														End Site
														{
															OFFSET 0.6299 -0.1575 -0.5118
														}
													}
												}
											}
											JOINT mHandThumb1Left
											{
												OFFSET 1.0236 0.1575 1.2205
												CHANNELS 3 Xrotation Yrotation Zrotation
												JOINT mHandThumb2Left
												{
													OFFSET 1.2598 -0.0394 1.1024
													CHANNELS 3 Xrotation Yrotation Zrotation
													JOINT mHandThumb3Left
													{
														OFFSET 1.2205 -0.0394 0.9055
														CHANNELS 3 Xrotation Yrotation Zrotation
														End Site
														{
															OFFSET 0.9843 0.0000 0.5906
														}
													}
												}
											}
										}
									}
								}
							}
							JOINT rCollar
							{
								OFFSET -2.8346 6.5116 -0.8157
								CHANNELS 3 Xrotation Yrotation Zrotation
								JOINT rShldr
								{
									OFFSET -3.1267 0.0000 0.0000
									CHANNELS 3 Xrotation Yrotation Zrotation
									JOINT rForeArm
									{
										OFFSET -10.9354 0.0000 0.0000
										CHANNELS 3 Xrotation Yrotation Zrotation
										JOINT rHand
										{
											OFFSET -9.5236 0.0000 0.0000
											CHANNELS 3 Xrotation Yrotation Zrotation
											JOINT mHandMiddle1Right
											{
												OFFSET -3.9764 0.5905 0.5118
												CHANNELS 3 Xrotation Yrotation Zrotation
												JOINT mHandMiddle2Right
												{
													OFFSET -1.5748 -0.2362 -0.0394
													CHANNELS 3 Xrotation Yrotation Zrotation
													JOINT mHandMiddle3Right
													{
														OFFSET -1.9291 -0.3150 -0.0394
														CHANNELS 3 Xrotation Yrotation Zrotation
														End Site
														{
															OFFSET -1.2992 -0.2362 -0.0787
														}
													}
												}
											}
											JOINT mHandIndex1Right
											{
												OFFSET -3.8189 0.5905 1.4961
												CHANNELS 3 Xrotation Yrotation Zrotation
												JOINT mHandIndex2Right
												{
													OFFSET -1.4173 -0.2362 0.6693
													CHANNELS 3 Xrotation Yrotation Zrotation
													JOINT mHandIndex3Right
													{
														OFFSET -1.2598 -0.2362 0.5512
														CHANNELS 3 Xrotation Yrotation Zrotation
														End Site
														{
															OFFSET -0.9843 -0.1575 0.4331
														}
													}
												}
											}
											JOINT mHandRing1Right
											{
												OFFSET -3.8976 0.3543 -0.3937
												CHANNELS 3 Xrotation Yrotation Zrotation
												JOINT mHandRing2Right
												{
													OFFSET -1.4961 -0.3150 -0.5118
													CHANNELS 3 Xrotation Yrotation Zrotation
													JOINT mHandRing3Right
													{
														OFFSET -1.5748 -0.3543 -0.5118
														CHANNELS 3 Xrotation Yrotation Zrotation
														End Site
														{
															OFFSET -1.1024 -0.2362 -0.3937
														}
													}
												}
											}
											JOINT mHandPinky1Right
											{
												OFFSET -3.7401 0.1181 -1.2205
												CHANNELS 3 Xrotation Yrotation Zrotation
												JOINT mHandPinky2Right
												{
													OFFSET -0.9842 -0.2362 -0.9449
													CHANNELS 3 Xrotation Yrotation Zrotation
													JOINT mHandPinky3Right
													{
														OFFSET -0.7087 -0.1575 -0.5906
														CHANNELS 3 Xrotation Yrotation Zrotation
														End Site
														{
															OFFSET -0.6299 -0.1575 -0.5118
														}
													}
												}
											}
											JOINT mHandThumb1Right
											{
												OFFSET -1.0236 0.1575 1.2205
												CHANNELS 3 Xrotation Yrotation Zrotation
												JOINT mHandThumb2Right
												{
													OFFSET -1.2598 -0.0394 1.1024
													CHANNELS 3 Xrotation Yrotation Zrotation
													JOINT mHandThumb3Right
													{
														OFFSET -1.2205 -0.0394 0.9055
														CHANNELS 3 Xrotation Yrotation Zrotation
														End Site
														{
															OFFSET -0.9843 0.0000 0.5906
														}
													}
												}
											}
										}
									}
								}
							}
						}
					}
				}
			}
		}
	}
	JOINT rThigh
	{
		OFFSET -5.0711 -1.6176 1.3236
		CHANNELS 3 Xrotation Yrotation Zrotation
		JOINT rShin
		{
			OFFSET 1.9148 -19.3276 -0.0307
			CHANNELS 3 Xrotation Yrotation Zrotation
			JOINT rFoot
			{
				OFFSET 0.0000 -18.4446 -1.1366
				CHANNELS 3 Xrotation Yrotation Zrotation
				End Site
				{
					OFFSET 0.0000 -2.3873 4.4077
				}
			}
		}
	}
	JOINT lThigh
	{
		OFFSET 4.9907 -1.6141 1.3290
		CHANNELS 3 Xrotation Yrotation Zrotation
		JOINT lShin
		{
			OFFSET -1.7940 -19.3328 -0.0349
			CHANNELS 3 Xrotation Yrotation Zrotation
			JOINT lFoot
			{
				OFFSET 0.0543 -18.4428 -1.1373
				CHANNELS 3 Xrotation Yrotation Zrotation
				End Site
				{
					OFFSET 0.0000 -2.3866 4.4077
				}
			}
		}
	}
}
MOTION
Frames: 8
Frame Time: 0.041667
0.0000 42.0084 0.0000 0.0000 0.0000 0.0000 0.0000 0.0000 0.0000 0.0000 0.0000 0.0000 0.0000 0.0000 0.0000 0.0000 0.0000 0.0000 0.0000 0.0000 0.0000 0.0000 0.0000 0.0000 0.0000 0.0000 0.0000 0.0000 0.0000 0.0000 0.0000 0.0000 0.0000 0.0000 0.0000 0.0000 0.0000 0.0000 0.0000 0.0000 0.0000 0.0000 0.0000 0.0000 0.0000 0.0000 0.0000 0.0000 0.0000 0.0000 0.0000 0.0000 0.0000 0.0000 0.0000 0.0000 0.0000 0.0000 0.0000 0.0000 0.0000 0.0000 0.0000 0.0000 0.0000 0.0000 0.0000 0.0000 0.0000 0.0000 0.0000 0.0000 0.0000 0.0000 0.0000 0.0000 0.0000 0.0000 0.0000 0.0000 0.0000 0.0000 0.0000 0.0000 0.0000 0.0000 0.0000 0.0000 0.0000 0.0000 0.0000 0.0000 0.0000 0.0000 0.0000 0.0000 0.0000 0.0000 0.0000 0.0000 0.0000 0.0000 0.0000 0.0000 0.0000 0.0000 0.0000 0.0000 0.0000 0.0000 0.0000 0.0000 0.0000 0.0000 0.0000 0.0000 0.0000 0.0000 0.0000 0.0000 0.0000 0.0000 0.0000 0.0000 0.0000 0.0000 0.0000 0.0000 0.0000 0.0000 0.0000 0.0000 0.0000 0.0000 0.0000 0.0000 0.0000 0.0000 0.0000 0.0000 0.0000 0.0000 0.0000 0.0000 0.0000 0.0000 0.0000 0.0000 0.0000 0.0000 0.0000 0.0000 0.0000 0.0000 0.0000 0.0000 0.0000 0.0000 0.0000 0.0000 0.0000 0.0000 
0.0000 8.5241 -7.8017 -10.0000 0.0000 0.0000 0.0000 0.0000 0.0000 0.0000 0.0000 0.0000 19.0000 0.0000 0.0000 0.0000 0.0000 0.0000 0.0000 0.0000 0.0000 -4.0000 0.0000 0.0000 13.0000 0.0000 0.0000 18.0000 0.0000 0.0000 0.9942 0.2650 2.5233 -25.7884 -27.6821 -93.4291 -9.7743 -31.8400 -17.9256 -20.6222 0.0000 16.1189 -0.2652 -0.6563 -5.3634 -0.2853 -0.8299 -5.3377 -0.5254 -0.8713 -5.3148 10.3999 23.0021 -10.8876 1.7272 -1.3647 -4.6057 1.8156 -1.1916 -4.6213 -4.3258 -15.3241 -2.6441 -1.8212 -0.7175 -4.9654 -1.9419 -0.6484 -4.9285 -6.3691 -36.5135 0.5199 -3.1858 -0.2795 -3.7174 -3.1536 -0.3362 -3.7416 6.1383 7.2771 -6.6484 5.6561 7.2880 -7.0435 4.6435 7.7693 -7.2299 0.9955 -0.2331 -2.2189 -23.6770 33.8827 91.2189 -6.6871 36.7649 10.0669 -39.5610 0.0000 -18.1611 -0.5874 2.7460 3.5337 -0.1978 0.6008 3.8458 -0.3705 0.6328 3.8289 9.4382 -23.0767 9.3578 1.2847 0.9934 3.4012 1.3486 0.8649 3.4125 -4.2866 19.9720 0.5400 -1.3297 0.5417 3.6393 -1.4188 0.4919 3.6124 -5.0276 42.7495 -2.8211 -2.3127 0.2236 2.6991 -2.2889 0.2647 2.7164 4.1650 -7.1017 4.2582 4.3894 -5.8171 5.4988 3.5825 -6.1881 5.6522 -60.8548 39.2752 -18.6650 145.7169 -16.9460 -12.7437 32.1291 -15.3845 -17.8395 -56.8408 -44.5954 22.7122 144.4190 16.6836 12.6539 32.3785 5.8610 19.6455 
0.0000 8.5241 -7.8017 -10.0000 0.0000 0.0000 0.0000 0.0000 0.0000 0.0000 0.0000 0.0000 19.0000 0.0000 0.0000 0.0000 0.0000 0.0000 0.0000 0.0000 0.0000 -4.0000 0.0000 0.0000 13.0000 0.0000 0.0000 18.0000 0.0000 0.0000 0.9942 0.2650 2.5233 -25.7884 -27.6821 -93.4291 -9.7743 -31.8400 -17.9256 -20.6222 0.0000 16.1189 -0.2652 -0.6563 -5.3634 -0.2853 -0.8299 -5.3377 -0.5254 -0.8713 -5.3148 10.3999 23.0021 -10.8876 1.7272 -1.3647 -4.6057 1.8156 -1.1916 -4.6213 -4.3258 -15.3241 -2.6441 -1.8212 -0.7175 -4.9654 -1.9419 -0.6484 -4.9285 -6.3691 -36.5135 0.5199 -3.1858 -0.2795 -3.7174 -3.1536 -0.3362 -3.7416 6.1383 7.2771 -6.6484 5.6561 7.2880 -7.0435 4.6435 7.7693 -7.2299 0.9955 -0.2331 -2.2189 -23.6770 33.8827 91.2189 -6.6871 36.7649 10.0669 -39.5610 0.0000 -18.1611 -0.5874 2.7460 3.5337 -0.1978 0.6008 3.8458 -0.3705 0.6328 3.8289 9.4382 -23.0767 9.3578 1.2847 0.9934 3.4012 1.3486 0.8649 3.4125 -4.2866 19.9720 0.5400 -1.3297 0.5417 3.6393 -1.4188 0.4919 3.6124 -5.0276 42.7495 -2.8211 -2.3127 0.2236 2.6991 -2.2889 0.2647 2.7164 4.1650 -7.1017 4.2582 4.3894 -5.8171 5.4988 3.5825 -6.1881 5.6522 -60.8548 39.2752 -18.6650 145.7169 -16.9460 -12.7437 32.1291 -15.3845 -17.8395 -56.8408 -44.5954 22.7122 144.4190 16.6836 12.6539 32.3785 5.8610 19.6455 
0.0000 8.5241 -7.8017 -10.0000 0.0000 0.0000 0.0000 0.0000 0.0000 0.0000 0.0000 0.0000 19.0000 0.0000 0.0000 0.0000 0.0000 0.0000 0.0000 0.0000 0.0000 -4.0000 0.0000 0.0000 13.0000 0.0000 0.0000 18.0000 0.0000 0.0000 0.9942 0.2650 2.5233 -25.7884 -27.6821 -93.4291 -9.7743 -31.8400 -17.9256 -20.6222 0.0000 16.1189 -0.2652 -0.6563 -5.3634 -0.2853 -0.8299 -5.3377 -0.5254 -0.8713 -5.3148 10.3999 23.0021 -10.8876 1.7272 -1.3647 -4.6057 1.8156 -1.1916 -4.6213 -4.3258 -15.3241 -2.6441 -1.8212 -0.7175 -4.9654 -1.9419 -0.6484 -4.9285 -6.3691 -36.5135 0.5199 -3.1858 -0.2795 -3.7174 -3.1536 -0.3362 -3.7416 6.1383 7.2771 -6.6484 5.6561 7.2880 -7.0435 4.6435 7.7693 -7.2299 0.9955 -0.2331 -2.2189 -23.6770 33.8827 91.2189 -6.6871 36.7649 10.0669 -39.5610 0.0000 -18.1611 -0.5874 2.7460 3.5337 -0.1978 0.6008 3.8458 -0.3705 0.6328 3.8289 9.4382 -23.0767 9.3578 1.2847 0.9934 3.4012 1.3486 0.8649 3.4125 -4.2866 19.9720 0.5400 -1.3297 0.5417 3.6393 -1.4188 0.4919 3.6124 -5.0276 42.7495 -2.8211 -2.3127 0.2236 2.6991 -2.2889 0.2647 2.7164 4.1650 -7.1017 4.2582 4.3894 -5.8171 5.4988 3.5825 -6.1881 5.6522 -60.8548 39.2752 -18.6650 145.7169 -16.9460 -12.7437 32.1291 -15.3845 -17.8395 -56.8408 -44.5954 22.7122 144.4190 16.6836 12.6539 32.3785 5.8610 19.6455 
0.0000 8.5241 -7.8017 -10.0000 0.0000 0.0000 0.0000 0.0000 0.0000 0.0000 0.0000 0.0000 19.0000 0.0000 0.0000 0.0000 0.0000 0.0000 0.0000 0.0000 0.0000 -4.0000 0.0000 0.0000 13.0000 0.0000 0.0000 18.0000 0.0000 0.0000 0.9942 0.2650 2.5233 -25.7884 -27.6821 -93.4291 -9.7743 -31.8400 -17.9256 -20.6222 0.0000 16.1189 -0.2652 -0.6563 -5.3634 -0.2853 -0.8299 -5.3377 -0.5254 -0.8713 -5.3148 10.3999 23.0021 -10.8876 1.7272 -1.3647 -4.6057 1.8156 -1.1916 -4.6213 -4.3258 -15.3241 -2.6441 -1.8212 -0.7175 -4.9654 -1.9419 -0.6484 -4.9285 -6.3691 -36.5135 0.5199 -3.1858 -0.2795 -3.7174 -3.1536 -0.3362 -3.7416 6.1383 7.2771 -6.6484 5.6561 7.2880 -7.0435 4.6435 7.7693 -7.2299 0.9955 -0.2331 -2.2189 -23.6770 33.8827 91.2189 -6.6871 36.7649 10.0669 -39.5610 0.0000 -18.1611 -0.5874 2.7460 3.5337 -0.1978 0.6008 3.8458 -0.3705 0.6328 3.8289 9.4382 -23.0767 9.3578 1.2847 0.9934 3.4012 1.3486 0.8649 3.4125 -4.2866 19.9720 0.5400 -1.3297 0.5417 3.6393 -1.4188 0.4919 3.6124 -5.0276 42.7495 -2.8211 -2.3127 0.2236 2.6991 -2.2889 0.2647 2.7164 4.1650 -7.1017 4.2582 4.3894 -5.8171 5.4988 3.5825 -6.1881 5.6522 -60.8548 39.2752 -18.6650 145.7169 -16.9460 -12.7437 32.1291 -15.3845 -17.8395 -56.8408 -44.5954 22.7122 144.4190 16.6836 12.6539 32.3785 5.8610 19.6455 
0.0000 8.5241 -7.8017 -10.0000 0.0000 0.0000 0.0000 0.0000 0.0000 0.0000 0.0000 0.0000 19.0000 0.0000 0.0000 0.0000 0.0000 0.0000 0.0000 0.0000 0.0000 -4.0000 0.0000 0.0000 13.0000 0.0000 0.0000 18.0000 0.0000 0.0000 0.9942 0.2650 2.5233 -25.7884 -27.6821 -93.4291 -9.7743 -31.8400 -17.9256 -20.6222 0.0000 16.1189 -0.2652 -0.6563 -5.3634 -0.2853 -0.8299 -5.3377 -0.5254 -0.8713 -5.3148 10.3999 23.0021 -10.8876 1.7272 -1.3647 -4.6057 1.8156 -1.1916 -4.6213 -4.3258 -15.3241 -2.6441 -1.8212 -0.7175 -4.9654 -1.9419 -0.6484 -4.9285 -6.3691 -36.5135 0.5199 -3.1858 -0.2795 -3.7174 -3.1536 -0.3362 -3.7416 6.1383 7.2771 -6.6484 5.6561 7.2880 -7.0435 4.6435 7.7693 -7.2299 0.9955 -0.2331 -2.2189 -23.6770 33.8827 91.2189 -6.6871 36.7649 10.0669 -39.5610 0.0000 -18.1611 -0.5874 2.7460 3.5337 -0.1978 0.6008 3.8458 -0.3705 0.6328 3.8289 9.4382 -23.0767 9.3578 1.2847 0.9934 3.4012 1.3486 0.8649 3.4125 -4.2866 19.9720 0.5400 -1.3297 0.5417 3.6393 -1.4188 0.4919 3.6124 -5.0276 42.7495 -2.8211 -2.3127 0.2236 2.6991 -2.2889 0.2647 2.7164 4.1650 -7.1017 4.2582 4.3894 -5.8171 5.4988 3.5825 -6.1881 5.6522 -60.8548 39.2752 -18.6650 145.7169 -16.9460 -12.7437 32.1291 -15.3845 -17.8395 -56.8408 -44.5954 22.7122 144.4190 16.6836 12.6539 32.3785 5.8610 19.6455 
0.0000 8.5241 -7.8017 -10.0000 0.0000 0.0000 0.0000 0.0000 0.0000 0.0000 0.0000 0.0000 19.0000 0.0000 0.0000 0.0000 0.0000 0.0000 0.0000 0.0000 0.0000 -4.0000 0.0000 0.0000 13.0000 0.0000 0.0000 18.0000 0.0000 0.0000 0.9942 0.2650 2.5233 -25.7884 -27.6821 -93.4291 -9.7743 -31.8400 -17.9256 -20.6222 0.0000 16.1189 -0.2652 -0.6563 -5.3634 -0.2853 -0.8299 -5.3377 -0.5254 -0.8713 -5.3148 10.3999 23.0021 -10.8876 1.7272 -1.3647 -4.6057 1.8156 -1.1916 -4.6213 -4.3258 -15.3241 -2.6441 -1.8212 -0.7175 -4.9654 -1.9419 -0.6484 -4.9285 -6.3691 -36.5135 0.5199 -3.1858 -0.2795 -3.7174 -3.1536 -0.3362 -3.7416 6.1383 7.2771 -6.6484 5.6561 7.2880 -7.0435 4.6435 7.7693 -7.2299 0.9955 -0.2331 -2.2189 -23.6770 33.8827 91.2189 -6.6871 36.7649 10.0669 -39.5610 0.0000 -18.1611 -0.5874 2.7460 3.5337 -0.1978 0.6008 3.8458 -0.3705 0.6328 3.8289 9.4382 -23.0767 9.3578 1.2847 0.9934 3.4012 1.3486 0.8649 3.4125 -4.2866 19.9720 0.5400 -1.3297 0.5417 3.6393 -1.4188 0.4919 3.6124 -5.0276 42.7495 -2.8211 -2.3127 0.2236 2.6991 -2.2889 0.2647 2.7164 4.1650 -7.1017 4.2582 4.3894 -5.8171 5.4988 3.5825 -6.1881 5.6522 -60.8548 39.2752 -18.6650 145.7169 -16.9460 -12.7437 32.1291 -15.3845 -17.8395 -56.8408 -44.5954 22.7122 144.4190 16.6836 12.6539 32.3785 5.8610 19.6455 
0.0000 8.5241 -7.8017 -10.0000 0.0000 0.0000 0.0000 0.0000 0.0000 0.0000 0.0000 0.0000 19.0000 0.0000 0.0000 0.0000 0.0000 0.0000 0.0000 0.0000 0.0000 -4.0000 0.0000 0.0000 13.0000 0.0000 0.0000 18.0000 0.0000 0.0000 0.9942 0.2650 2.5233 -25.7884 -27.6821 -93.4291 -9.7743 -31.8400 -17.9256 -20.6222 0.0000 16.1189 -0.2652 -0.6563 -5.3634 -0.2853 -0.8299 -5.3377 -0.5254 -0.8713 -5.3148 10.3999 23.0021 -10.8876 1.7272 -1.3647 -4.6057 1.8156 -1.1916 -4.6213 -4.3258 -15.3241 -2.6441 -1.8212 -0.7175 -4.9654 -1.9419 -0.6484 -4.9285 -6.3691 -36.5135 0.5199 -3.1858 -0.2795 -3.7174 -3.1536 -0.3362 -3.7416 6.1383 7.2771 -6.6484 5.6561 7.2880 -7.0435 4.6435 7.7693 -7.2299 0.9955 -0.2331 -2.2189 -23.6770 33.8827 91.2189 -6.6871 36.7649 10.0669 -39.5610 0.0000 -18.1611 -0.5874 2.7460 3.5337 -0.1978 0.6008 3.8458 -0.3705 0.6328 3.8289 9.4382 -23.0767 9.3578 1.2847 0.9934 3.4012 1.3486 0.8649 3.4125 -4.2866 19.9720 0.5400 -1.3297 0.5417 3.6393 -1.4188 0.4919 3.6124 -5.0276 42.7495 -2.8211 -2.3127 0.2236 2.6991 -2.2889 0.2647 2.7164 4.1650 -7.1017 4.2582 4.3894 -5.8171 5.4988 3.5825 -6.1881 5.6522 -60.8548 39.2752 -18.6650 145.7169 -16.9460 -12.7437 32.1291 -15.3845 -17.8395 -56.8408 -44.5954 22.7122 144.4190 16.6836 12.6539 32.3785 5.8610 19.6455 
